<svg width="18" height="17" viewBox="0 0 18 17" fill="none" xmlns="http://www.w3.org/2000/svg">
<path d="M7.83342 9.83321L6.02091 8.02071C5.86814 7.86793 5.67703 7.79488 5.44758 7.80154C5.21814 7.80821 5.0273 7.88821 4.87508 8.04154C4.7223 8.19432 4.64591 8.38877 4.64591 8.62488C4.64591 8.86099 4.7223 9.05543 4.87508 9.20821L7.25008 11.5832C7.40286 11.736 7.5973 11.8124 7.83342 11.8124C8.06953 11.8124 8.26397 11.736 8.41675 11.5832L13.1459 6.85404C13.2987 6.70127 13.3717 6.51016 13.3651 6.28071C13.3584 6.05127 13.2784 5.86043 13.1251 5.70821C12.9723 5.55543 12.7779 5.47904 12.5417 5.47904C12.3056 5.47904 12.1112 5.55543 11.9584 5.70821L7.83342 9.83321ZM9.00008 16.6665C7.8473 16.6665 6.76397 16.4477 5.75008 16.0099C4.73619 15.5721 3.85425 14.9785 3.10425 14.229C2.35425 13.479 1.76064 12.5971 1.32341 11.5832C0.886193 10.5693 0.667304 9.48599 0.666748 8.33321C0.666748 7.18043 0.885637 6.0971 1.32341 5.08321C1.76119 4.06932 2.3548 3.18738 3.10425 2.43738C3.85425 1.68738 4.73619 1.09377 5.75008 0.656545C6.76397 0.219322 7.8473 0.000433485 9.00008 -0.00012207C10.1529 -0.00012207 11.2362 0.218767 12.2501 0.656545C13.264 1.09432 14.1459 1.68793 14.8959 2.43738C15.6459 3.18738 16.2398 4.06932 16.6776 5.08321C17.1154 6.0971 17.334 7.18043 17.3334 8.33321C17.3334 9.48599 17.1145 10.5693 16.6767 11.5832C16.239 12.5971 15.6454 13.479 14.8959 14.229C14.1459 14.979 13.264 15.5729 12.2501 16.0107C11.2362 16.4485 10.1529 16.6671 9.00008 16.6665ZM9.00008 14.9999C10.8473 14.9999 12.4204 14.3507 13.7192 13.0524C15.0181 11.754 15.6673 10.181 15.6667 8.33321C15.6667 6.48599 15.0176 4.91293 13.7192 3.61404C12.4209 2.31516 10.8479 1.66599 9.00008 1.66654C7.15286 1.66654 5.5798 2.31571 4.28091 3.61404C2.98203 4.91238 2.33286 6.48543 2.33341 8.33321C2.33341 10.1804 2.98258 11.7535 4.28091 13.0524C5.57925 14.3513 7.1523 15.0004 9.00008 14.9999Z" fill="white"/>
</svg>
